<svg width="67" height="17" viewBox="0 0 67 17" fill="none" xmlns="http://www.w3.org/2000/svg">
<path d="M1.21006 0.546267C0.959472 0.430253 0.66228 0.539348 0.546267 0.789938C0.430253 1.04053 0.539348 1.33772 0.789938 1.45373L1.21006 0.546267ZM32.8825 16.3114L33.3362 16.5215L33.7563 15.614L33.3026 15.4039L32.8825 16.3114ZM0.789938 1.45373L32.8825 16.3114L33.3026 15.4039L1.21006 0.546267L0.789938 1.45373Z" fill="white"/>
<path d="M65.4623 0.546267C65.7129 0.430253 66.0101 0.539348 66.1261 0.789938C66.2421 1.04053 66.133 1.33772 65.8824 1.45373L65.4623 0.546267ZM33.7899 16.3114L33.3362 16.5215L32.916 15.614L33.3698 15.4039L33.7899 16.3114ZM65.8824 1.45373L33.7899 16.3114L33.3698 15.4039L65.4623 0.546267L65.8824 1.45373Z" fill="white"/>
</svg>
